<?xml version="1.0"?>
<svg width="200" height="200" xmlns="http://www.w3.org/2000/svg" xmlns:svg="http://www.w3.org/2000/svg">
 <!-- Created with SVG-edit - https://github.com/SVG-Edit/svgedit-->

 <g class="layer">
  <title>Layer 1</title>
  <ellipse cx="99" cy="100.899994" fill="#ffff00" id="svg_2" rx="79" ry="86" stroke="#000000" stroke-width="5"/>
  <path d="m35,62.899994c0.009003,2.014332 -0.020935,2.845852 0.333344,4c0.188965,0.615646 0.504791,1.211605 1.075653,2.042835c0.558746,0.81361 1.201843,1.496849 1.57016,1.977997c0.559418,0.730808 1.030121,1.61087 1.384857,2.640503c0.246979,0.716896 0.425995,1.458492 0.736145,2.517666c0.198822,0.678978 0.41864,1.363338 0.657013,2.087997c0.405975,1.234158 0.727539,2.186104 0.895508,2.695503c0.348785,1.057846 0.524475,1.596706 0.694641,2.136665c0.493286,1.565231 0.771332,2.53009 0.891022,2.990997c0.230225,0.886406 0.43161,1.753716 0.595001,3.0765c0.05603,0.453621 0.117645,1.390228 0.145813,2.354172c0.014313,0.489723 0.020172,1.480499 0.020844,2.978996c0.000214,0.498833 0,1.489502 0,1.979332c0,0.963669 0,2.354172 0,3.234169c0,0.840004 0,1.639999 0,2.400002c0,1.065498 0,1.738495 0,2.748001c0,0.708 0,1.88166 0,2.752998c0,0.457664 0,1.406998 0,2.388336c0,0.99733 0,1.995995 0,2.986664c0,0.48983 0,1.453499 0,2.844002c0,0.445328 0,1.313995 0,2.166664c0,0.852669 0,2.166664 0,3.081337c0,0.462326 0,1.376999 0,2.251663c0,1.167 0,2.1045 0,2.906998c0,1.093338 0,1.729332 0,2.421333c0,1.0905 0,2.172005 0,2.85067c0,0.925499 0.0979,1.72126 -0.010681,2.826668c-0.082367,0.838524 -0.528625,1.669022 -0.705322,2.262665c-0.293427,0.985748 -0.281738,1.855827 -0.283997,2.819832c-0.001862,0.793503 0,1.569 0,2.764503c0,0.91433 -0.343994,2.158333 0,2.158333c0.757507,0 0,-1.742668 0,-2.686836c0,-0.900002 0,-1.857162 0,-2.7575c0,-0.713997 0,-1.671669 0,-2.462166c0,-0.925499 -0.00531,-1.959389 0.004486,-2.703667c0.010498,-0.796432 0.031647,-1.654449 0.16217,-3.067169c0.047119,-0.509918 0.184845,-1.567657 0.258667,-2.106667c0.147034,-1.073654 0.244415,-1.594826 0.40802,-3.059998c0.094238,-0.843994 0.138458,-1.602432 0.155975,-2.304001c0.016907,-0.677185 0.004181,-2.080139 0.021362,-2.821335c0.017395,-0.749557 0.033966,-1.496666 0.210663,-2.553162c0.166016,-0.992607 0.399536,-1.601875 0.612,-2.821503c0.104126,-0.597809 0.154938,-1.520691 0.165314,-2.485336c0.011139,-1.035767 0.001343,-1.762833 0.001343,-2.493828c0,-1.051506 0,-1.978333 0,-2.780838c0,-0.802498 0,-2.104332 0,-2.906998c0,-0.430336 0,-1.329002 0,-2.251663c0,-1.360001 0,-1.79734 0,-2.656006c0,-0.850662 0,-1.709328 0,-3.046661c0,-0.931335 0,-1.403999 0,-2.35334c0,-0.94133 0,-1.858665 0,-2.738663c0,-0.840004 0,-1.639999 0,-2.400002c0,-1.400002 0,-2.040001 0,-2.924995c0,-1.040504 0,-1.982502 0,-2.731003c0,-0.873501 0,-1.892002 0,-2.616001c0,-0.731998 0,-1.792999 0,-2.767998c0,-0.885002 0,-1.925003 0,-2.600002c0,-1.079998 0,-1.871998 0,-2.730667c0,-0.863331 0,-1.890667 0,-2.837334c0,-0.678665 0,-1.657166 0,-2.477333c0,-0.901333 0.079376,-1.914753 0.885834,-2.522499c0.503021,-0.37907 1.161896,-0.693584 1.875,-0.968998c1.392181,-0.537674 2.07489,-0.626648 2.992493,-0.688503c0.559052,-0.037685 1.785004,-0.021332 2.585022,-0.021332c1.025665,0 1.864319,0 2.632324,0c1.030151,0 1.742676,0 2.862335,0c0.81366,0 1.665039,-0.107624 2.514313,0.057167c0.925751,0.179626 1.642914,0.833641 2.452667,0.941498c0.950562,0.126617 1.93219,0.252308 2.490173,0.763c0.665924,0.609467 0.773773,1.686405 1.564514,2.070335c0.6362,0.308895 1.509247,0.238022 2.461334,0.737331c0.7258,0.380646 1.339111,0.999104 2.365326,1.545334c0.757629,0.403259 1.547974,0.589981 2.231995,1.285336c0.615494,0.625683 1.286865,1.239487 2.286331,1.478664c0.747208,0.17881 1.62439,0.410557 1.96701,1.288002c0.253784,0.649929 0.628021,1.531948 1.276001,2.276165c0.527252,0.60556 1.033264,1.050808 1.536499,2.036335c0.410126,0.803158 0.878448,1.626934 1.073502,2.278c0.271027,0.904686 0.731079,1.557358 0.911331,2.606831c0.159332,0.927608 0.036072,1.802666 0.035995,2.636002c-0.000092,0.9785 -0.114288,1.782799 -0.5,2.520836c-0.410278,0.785019 -0.435928,1.747879 -0.942993,2.679001c-0.348679,0.640282 -0.934753,1.183975 -1.757172,1.778831c-0.589615,0.426476 -1.493805,0.891129 -2.221008,1.342834c-0.803329,0.498993 -1.377029,0.824089 -2.245499,1.678497c-0.565216,0.556061 -0.855423,1.254646 -1.654663,1.978333c-0.616196,0.557945 -1.666916,0.862206 -2.43132,1.074333c-0.918274,0.254822 -1.636108,0.65802 -2.447357,0.825836c-0.789581,0.163338 -1.804199,0.049255 -2.779144,0.142334c-0.86261,0.082359 -1.607361,0.675797 -2.50351,0.893829c-0.788513,0.191849 -1.67984,0.085335 -2.579834,0.085335c-0.69751,0 -1.794495,0 -2.62851,0c-0.908997,0 -1.829834,0 -2.794312,0c-0.725342,0 -1.714508,0 -2.493835,0c-0.999329,0 -1.819519,0 -2.720856,0c-0.935974,0 -1.783997,0 -2.647308,0c-1.006012,0 -1.655334,-0.285332 -1.986023,-1l-0.666656,-0.520836" fill="none" id="svg_5" stroke="#000000" stroke-width="5"/>
  <path d="m65,111.899994c2.682663,-0.283997 3.464531,-0.557404 4.666664,-0.833336c0.804558,-0.184677 1.654839,-0.166664 2.544006,-0.166664c0.989166,0 1.768494,0 2.767998,0c0.774002,0 1.678497,-0.000504 2.425835,0c0.992828,0.000671 2.096024,-0.149689 2.574661,0.5625c0.563194,0.838005 0.42601,1.70002 0.725334,2.432167c0.358994,0.87809 1.036629,1.520149 1.259499,2.416c0.219986,0.884254 0.036003,1.727997 0.036003,2.694664c0,0.915504 0,1.873337 0,2.647339c0,0.899994 0.107071,1.771454 -0.020836,2.74733c-0.109848,0.83812 -0.726257,1.576569 -0.943161,2.449333c-0.220139,0.885765 -0.036003,1.883995 -0.036003,2.603996c0,0.967499 0,1.85733 0,2.768005c0,0.853333 0,1.791992 0,2.664001c0,0.875992 0,1.847992 0,2.639999c0,0.856003 0,1.720001 0,1.171997c0,-0.768005 0,-1.798172 0,-2.510666c0,-1.034668 0,-1.951004 0,-2.828339c0,-0.776993 0,-1.774323 0,-2.458328c0,-1.166672 -0.03019,-1.954727 0.036003,-2.774673c0.085831,-1.06324 0.291466,-1.780869 0.668495,-2.620827c0.367043,-0.817719 0.747688,-1.61351 1.295502,-2.437836c0.461235,-0.694046 1.039833,-1.311356 1.389336,-1.991997c0.503128,-0.979836 0.585602,-1.721031 0.777328,-2.674667c0.172562,-0.858315 0.259277,-1.533607 0.720001,-2.362663c0.484459,-0.871765 1.558311,-1.103317 2.228004,-1.706673c0.577759,-0.520531 1.06736,-1.353767 1.52816,-2.126167c0.441238,-0.739601 1.021278,-1.279037 1.839836,-1.588493c0.82827,-0.313126 1.626793,-0.653275 2.400002,-0.737335c0.81427,-0.088524 1.802841,-0.543823 2.617332,-0.978668c0.548355,-0.292763 1.563957,-0.835716 2.458336,-0.958336c0.867874,-0.11898 1.764977,-0.231117 2.641663,-0.005661c0.866241,0.222771 1.600891,0.986107 2.042831,1.663994c0.47847,0.733917 0.892448,1.506325 1.235672,2.400169c0.284737,0.741516 -0.114304,1.799522 0.288162,2.566498c0.438087,0.834854 0.662109,1.464371 1.276001,2.311836c0.439507,0.606728 1.434776,1.097366 1.557335,2.0215c0.099548,0.750595 -0.118538,1.673195 0.085335,2.515999c0.214806,0.888008 0.871948,1.680969 0.914665,2.584167c0.037094,0.784286 0,1.7145 0,2.656998c0,0.7845 0,1.72683 0,2.590172c0,0.895493 0.22554,2.073624 -0.442665,2.531326c-0.595436,0.407852 -1.536499,0.662323 -1.557335,1.604004c-0.01786,0.807297 -0.085335,1.685333 -0.5,2.496506l-0.479164,0.4375" fill="none" id="svg_7" stroke="#000000" stroke-width="5"/>
  <path d="m143,108.899994c-2.604507,-1.885666 -3.457275,-1.983238 -4.421494,-2.000336c-0.814636,-0.014442 -1.703369,-0.043159 -2.578506,-0.333c-0.918228,-0.304115 -1.477188,-0.659363 -2.22934,-1.183998c-0.982315,-0.685181 -1.535767,-1.326767 -2.406662,-1.472c-0.83783,-0.139717 -1.768494,-0.010666 -2.762665,-0.010666c-0.765335,0 -1.717331,0 -2.485336,0c-0.94133,0 -1.949333,-0.001236 -2.741333,0c-0.85733,0.001335 -1.778275,0.026733 -2.323997,0.85067c-0.497993,0.751869 -1.352112,0.741005 -1.936333,1.5065c-0.516129,0.676277 -0.422676,1.69416 -0.761665,2.399994c-0.406403,0.846199 -0.351997,1.6735 -0.352669,2.742836c-0.000488,0.786667 0,1.499168 0,2.69017c0,0.692497 0,1.645828 0,2.411163c0,0.98967 -0.1502,1.886925 0.333336,2.898666c0.29187,0.61071 0.834381,1.272858 1.5,2.166664c0.399094,0.535912 0.992355,1.288322 1.366661,2.100006c0.323738,0.702026 0.750847,1.798454 1.400002,2.237328c0.741241,0.501129 1.566154,0.79158 2.201332,1.166672c0.792374,0.467918 1.121742,1.375793 1.966667,1.660004c0.946335,0.318329 1.898674,0.335999 2.732002,0.669327c0.833328,0.333328 1.513443,0.462418 2.321335,0.489334c1.178055,0.039246 2.069672,0.010666 2.906662,0.010666c0.938675,0 1.730362,0.007034 2.671997,0c0.904587,-0.00676 1.799088,-0.473999 2.248169,-1.067001c0.530457,-0.70047 0.87468,-1.219467 1.18251,-2.249001c0.265778,-0.888878 0.326767,-1.85289 0.521988,-2.641167c0.212006,-0.856041 0.404373,-1.438026 0.563339,-2.640167c0.113403,-0.85762 0.088058,-1.657906 0.436661,-2.597328c0.297256,-0.801064 0.609085,-1.809731 0.636673,-2.554672c0.033951,-0.916763 0.960495,-2.779167 0.010666,-2.779167c-0.796509,0 0,1.695168 0,2.481171c0,0.821999 0,1.880669 0,2.821999c0,0.678001 0.032593,1.648354 -0.021332,2.461334c-0.0578,0.871552 -0.286926,1.774727 -0.684006,2.668503c-0.277359,0.624306 -0.694672,1.221382 -1.051666,2.616829c-0.184036,0.719398 -0.214554,1.47821 -0.233994,2.225998c-0.028214,1.085663 -0.009003,2.091003 -0.009003,2.710999c0,0.855011 0.000107,2.084503 0,2.731003c-0.000168,1.010498 0.0867,2.067657 -0.442673,2.789169c-0.443192,0.60405 -1.425827,1.094513 -1.548325,1.835831c-0.155487,0.940964 0.146454,1.721573 -0.175674,2.852341c-0.232407,0.815842 -1.181778,1.089386 -1.833328,1.833328c-0.421417,0.481186 -0.525497,1.334457 -1.166672,2.166672c-0.569656,0.73938 -1.415909,1.047821 -2.197327,1.743988c-0.48056,0.428131 -1.041275,1.422592 -1.335999,1.993835c-0.510513,0.989487 -0.711548,1.669571 -1.466675,2.428833c-0.603653,0.606949 -1.282639,0.866089 -2.517334,1.084c-0.537277,0.094818 -1.408646,0.075714 -2.394325,0.525345c-0.71759,0.327332 -1.346588,1.192276 -2.296333,1.485321c-0.907051,0.279877 -1.925354,-0.117111 -2.574669,0.518677c-0.583046,0.570892 -0.85009,1.441406 -1.568001,1.983994c-0.787704,0.595337 -1.630829,0.952072 -2.367996,1.285339c-0.733047,0.331406 -1.716812,0.248154 -2.705673,0.288498c-0.696075,0.028397 -1.335266,0.813919 -2.073662,0.995499c-0.635078,0.156174 -1.506004,0 -2.501999,0c-1.095001,0 -1.875,0 -2.695,0c-0.425003,0 -1.759338,0 -2.681999,0c-0.914673,0 -1.359001,0 -2.201668,0c-1.398666,0 -2.192169,0 -3.254669,0l-0.778664,0l-0.978172,0" fill="none" id="svg_8" stroke="#000000" stroke-width="5"/>
 </g>
</svg>